# xmcd CD database file
#
# Track frame offsets:
#	182
#	12812
#	28195
#	45705
#	57797
#	72672
#	89877
#	107842
#	127052
#	138912
#
# Disc length: 2104 seconds
#
# Revision: 4
# Processed by: cddbd v1.5.1PL2 Copyright (c) Steve Scherf et al.
# Submitted via: CDex 1.51
#
DISCID=9308360a
DTITLE=John Michael Montgomery - What I Do The Best
DYEAR=1996
DGENRE=Country
TTITLE0=Ain't Got Nothin' On Us
TTITLE1=A Few Cents Short
TTITLE2=Friends
TTITLE3=Lucky Arms
TTITLE4=What I Do The Best
TTITLE5=Cloud 8
TTITLE6=I Can Prove You Wrong
TTITLE7=How Was I To Know
TTITLE8=Paint The Town Redneck
TTITLE9=I Miss You A Little
EXTD=YEAR: 1996
EXTT0=
EXTT1=
EXTT2=
EXTT3=
EXTT4=
EXTT5=
EXTT6=
EXTT7=
EXTT8=
EXTT9=
PLAYORDER=
